<svg width="42" height="42" viewBox="0 0 42 42" fill="none" xmlns="http://www.w3.org/2000/svg">
<path d="M18.7301 2.18457H37.6315C38.5761 2.18457 39.3423 2.94991 39.3424 3.89453V22.7959C39.3424 23.7406 38.5762 24.5068 37.6315 24.5068H18.7301C17.7855 24.5068 17.0201 23.7405 17.0201 22.7959V3.89453C17.0202 2.94996 17.7855 2.18465 18.7301 2.18457Z" fill="#9DFF89" stroke="white" stroke-width="3.42105"/>
<path d="M11.3749 9.88196H30.2762C31.2209 9.88196 31.9871 10.6473 31.9872 11.5919V30.4933C31.9872 31.438 31.2209 32.2042 30.2762 32.2042H11.3749C10.4303 32.2041 9.66492 31.4379 9.66492 30.4933V11.5919C9.665 10.6473 10.4303 9.88204 11.3749 9.88196Z" fill="#0073DF" stroke="white" stroke-width="3.42105"/>
<rect x="2.77958" y="33.1875" width="20.4408" height="5.47368" fill="#0073DF" stroke="white" stroke-width="0.0855263"/>
<rect x="2.77958" y="17.7928" width="20.4408" height="13.2566" fill="#0B96DB" stroke="white" stroke-width="0.0855263"/>
<path d="M24.0332 34.0426V38.1051C24.0332 39.0498 23.267 39.816 22.3223 39.816H3.4209C2.47627 39.816 1.71094 39.0497 1.71094 38.1051V34.0426H24.0332ZM3.4209 17.4938H22.3223C23.2669 17.4938 24.0331 18.2591 24.0332 19.2037V30.6217H1.71094V19.2037L1.71973 19.0289C1.80152 18.224 2.44114 17.5844 3.24609 17.5026L3.4209 17.4938Z" stroke="white" stroke-width="3.42105"/>
</svg>
